{
	"asset":{
		"generator":"Khronos glTF Blender I/O v3.6.28",
		"version":"2.0"
	},
	"extensionsUsed":[
		"KHR_materials_transmission",
		"KHR_materials_ior"
	],
	"scene":0,
	"scenes":[
		{
			"name":"Scene",
			"nodes":[
				0
			]
		}
	],
	"nodes":[
		{
			"mesh":0,
			"name":"WaterBarrel",
			"rotation":[
				0,
				0.5262497663497925,
				0,
				0.8503300547599792
			],
			"scale":[
				1,
				0.3878691792488098,
				1
			],
			"translation":[
				4.413726806640625,
				-0.2800271511077881,
				4.5168561935424805
			]
		}
	],
	"animations":[
		{
			"channels":[
				{
					"sampler":0,
					"target":{
						"node":0,
						"path":"translation"
					}
				},
				{
					"sampler":1,
					"target":{
						"node":0,
						"path":"rotation"
					}
				},
				{
					"sampler":2,
					"target":{
						"node":0,
						"path":"scale"
					}
				}
			],
			"name":"WaterIncrease",
			"samplers":[
				{
					"input":4,
					"interpolation":"STEP",
					"output":5
				},
				{
					"input":4,
					"interpolation":"STEP",
					"output":6
				},
				{
					"input":7,
					"interpolation":"LINEAR",
					"output":8
				}
			]
		}
	],
	"materials":[
		{
			"doubleSided":true,
			"extensions":{
				"KHR_materials_transmission":{
					"transmissionFactor":1
				},
				"KHR_materials_ior":{
					"ior":1.3329999446868896
				}
			},
			"name":"Water",
			"pbrMetallicRoughness":{
				"baseColorFactor":[
					0.07116594165563583,
					0.36426296830177307,
					0.8000000715255737,
					1
				],
				"metallicFactor":0,
				"roughnessFactor":0
			}
		}
	],
	"meshes":[
		{
			"name":"Cylinder.001",
			"primitives":[
				{
					"attributes":{
						"POSITION":0,
						"NORMAL":1,
						"TEXCOORD_0":2
					},
					"indices":3,
					"material":0
				}
			]
		}
	],
	"accessors":[
		{
			"bufferView":0,
			"componentType":5126,
			"count":4619,
			"max":[
				1.6860426664352417,
				3.8465147018432617,
				1.7057138681411743
			],
			"min":[
				-1.6860426664352417,
				-0.019834116101264954,
				-1.7057127952575684
			],
			"type":"VEC3"
		},
		{
			"bufferView":1,
			"componentType":5126,
			"count":4619,
			"type":"VEC3"
		},
		{
			"bufferView":2,
			"componentType":5126,
			"count":4619,
			"type":"VEC2"
		},
		{
			"bufferView":3,
			"componentType":5123,
			"count":24576,
			"type":"SCALAR"
		},
		{
			"bufferView":4,
			"componentType":5126,
			"count":2,
			"max":[
				11.25
			],
			"min":[
				0
			],
			"type":"SCALAR"
		},
		{
			"bufferView":5,
			"componentType":5126,
			"count":2,
			"type":"VEC3"
		},
		{
			"bufferView":6,
			"componentType":5126,
			"count":2,
			"type":"VEC4"
		},
		{
			"bufferView":7,
			"componentType":5126,
			"count":271,
			"max":[
				11.25
			],
			"min":[
				0
			],
			"type":"SCALAR"
		},
		{
			"bufferView":8,
			"componentType":5126,
			"count":271,
			"type":"VEC3"
		}
	],
	"bufferViews":[
		{
			"buffer":0,
			"byteLength":55428,
			"byteOffset":0,
			"target":34962
		},
		{
			"buffer":0,
			"byteLength":55428,
			"byteOffset":55428,
			"target":34962
		},
		{
			"buffer":0,
			"byteLength":36952,
			"byteOffset":110856,
			"target":34962
		},
		{
			"buffer":0,
			"byteLength":49152,
			"byteOffset":147808,
			"target":34963
		},
		{
			"buffer":0,
			"byteLength":8,
			"byteOffset":196960
		},
		{
			"buffer":0,
			"byteLength":24,
			"byteOffset":196968
		},
		{
			"buffer":0,
			"byteLength":32,
			"byteOffset":196992
		},
		{
			"buffer":0,
			"byteLength":1084,
			"byteOffset":197024
		},
		{
			"buffer":0,
			"byteLength":3252,
			"byteOffset":198108
		}
	],
	"buffers":[
		{
			"byteLength":201360,
			"uri":"data:application/octet-stream;base64,"
		}
	]
}
